<svg xmlns="http://www.w3.org/2000/svg" xmlns:xlink="http://www.w3.org/1999/xlink" viewBox="0 0 1135.74 258.73"><defs><style>.cls-1{fill:gray;}.cls-2{fill:url(#linear-gradient);}.cls-3{fill:url(#linear-gradient-2);}.cls-4{fill:url(#linear-gradient-3);}.cls-5{fill:url(#linear-gradient-4);}.cls-6{fill:url(#linear-gradient-5);}.cls-7{fill:url(#linear-gradient-6);}.cls-8{fill:url(#linear-gradient-7);}</style><linearGradient id="linear-gradient" x1="91.36" y1="376.02" x2="1111.61" y2="409.72" gradientTransform="translate(-30.01 -337.1) rotate(3.11)" gradientUnits="userSpaceOnUse"><stop offset="0" stop-color="#5fbdff"/><stop offset="0.06" stop-color="#64b9ff"/><stop offset="0.12" stop-color="#71acff"/><stop offset="0.19" stop-color="#8797ff"/><stop offset="0.25" stop-color="#a77aff"/><stop offset="0.32" stop-color="#ce55ff"/><stop offset="0.4" stop-color="#a471fb"/><stop offset="0.54" stop-color="#5ea0f3"/><stop offset="0.65" stop-color="#2bc2ee"/><stop offset="0.74" stop-color="#0cd7ea"/><stop offset="0.79" stop-color="#00dfe9"/><stop offset="1" stop-color="#7b55ff"/></linearGradient><linearGradient id="linear-gradient-2" x1="73.33" y1="275.14" x2="1093.59" y2="308.84" gradientTransform="matrix(1, 0.04, -0.04, 1, -21.99, -232.48)" xlink:href="#linear-gradient"/><linearGradient id="linear-gradient-3" x1="38.69" y1="93.1" x2="1058.94" y2="126.81" gradientTransform="matrix(1, 0, 0, 1, 0, 0)" xlink:href="#linear-gradient"/><linearGradient id="linear-gradient-4" x1="38.95" y1="85.3" x2="1059.2" y2="119" gradientTransform="matrix(1, 0, 0, 1, 0, 0)" xlink:href="#linear-gradient"/><linearGradient id="linear-gradient-5" x1="38.64" y1="94.53" x2="1058.9" y2="128.23" gradientTransform="matrix(1, 0, 0, 1, 0, 0)" xlink:href="#linear-gradient"/><linearGradient id="linear-gradient-6" x1="50.41" y1="162.62" x2="1070.66" y2="196.33" gradientTransform="translate(-9.49 -83.31) rotate(0.79)" xlink:href="#linear-gradient"/><linearGradient id="linear-gradient-7" x1="50.91" y1="147.47" x2="1071.16" y2="181.18" gradientTransform="translate(-9.49 -83.31) rotate(0.79)" xlink:href="#linear-gradient"/></defs><title>New Age PNG Logo</title><g id="Layer_2" data-name="Layer 2"><g id="Layer_1-2" data-name="Layer 1"><path class="cls-1" d="M103.33,220.92h8.27q7.14,0,7.15,7.83v21.56q0,7.8-7.49,7.81h-7.93Zm5.37,5.29v26.62h2.35c1.55,0,2.33-.84,2.33-2.52V228.75c0-1.69-.78-2.54-2.33-2.54Z"/><path class="cls-1" d="M162.13,220.92h13.92v5.29H167.5v15.61h7.36v5.31H167.5v5.7h8.55v5.29H162.13Z"/><path class="cls-1" d="M230.06,258.12H222.7l-3.79-24-1.74-13.16h5.42l3.77,28.67,3.8-28.67h5.42l-1.75,13.2Z"/><path class="cls-1" d="M277.64,220.92h13.92v5.29H283v15.61h7.36v5.31H283v5.7h8.55v5.29H277.64Z"/><path class="cls-1" d="M334.38,258.12v-37.2h5.37v31.91h8.55v5.29Z"/><path class="cls-1" d="M405.4,250.9q0,7.82-7.72,7.83T390,250.9V228.14q0-7.81,7.7-7.81t7.72,7.81ZM400,228.14c0-1.67-.78-2.51-2.33-2.52h0q-2.31,0-2.31,2.52V250.9c0,1.68.77,2.52,2.33,2.52s2.35-.84,2.35-2.52Z"/><path class="cls-1" d="M448.79,220.92h7.81q7.14,0,7.15,7.83v10.49q0,5.76-5.14,7.43a12.17,12.17,0,0,1-3.59.4h-.87v11.05h-5.36Zm5.36,5.29v15.55h1.24a5.22,5.22,0,0,0,1.53-.15,2.32,2.32,0,0,0,1.46-2.37V228.75c0-1.69-.78-2.54-2.33-2.54Z"/><path class="cls-1" d="M568.94,220.92v5.29h-5v31.91h-5.36V226.21h-5v-5.29Z"/><path class="cls-1" d="M611.19,220.92h5.37v20.76h4.68V220.92h5.37v37.2h-5.37V247h-4.68v11.13h-5.37Z"/><path class="cls-1" d="M670.37,220.92h13.92v5.29h-8.55v15.61h7.36v5.31h-7.36v5.7h8.55v5.29H670.37Z"/><path class="cls-1" d="M775.68,220.92H781v37.2h-5.36Z"/><path class="cls-1" d="M824.91,220.92h8.27q7.14,0,7.14,7.83v21.56q0,7.8-7.49,7.81h-7.92Zm5.36,5.29v26.62h2.36c1.55,0,2.33-.84,2.33-2.52V228.75c0-1.69-.78-2.54-2.33-2.54Z"/><path class="cls-1" d="M883.71,220.92h13.92v5.29h-8.55v15.61h7.36v5.31h-7.36v5.7h8.55v5.29H883.71Z"/><path class="cls-1" d="M947.94,229.45l-3.79,28.67h-5.41l5.54-37.2h7.36l5.52,37.2h-5.43Z"/><path class="cls-1" d="M1004.21,247.16v3.74c0,1.68.78,2.52,2.35,2.52s2.33-.84,2.33-2.52v-.68q0-2.7-5-6.3t-5-8.72v-7.06q0-7.81,7.7-7.81t7.72,7.81v5h-5.37v-5c0-1.67-.78-2.51-2.33-2.52h0q-2.31,0-2.31,2.52v6.94q0,2.49,5,6.09t5,8.59v1.14q0,7.83-7.7,7.83t-7.72-7.83v-3.74Z"/><path class="cls-2" d="M951.75,113.14,955.32,102a17.35,17.35,0,0,0-5-1l-76.52-4.16a17.93,17.93,0,0,0-2,35.8l45,2.44-1.27,23.3-60.77-3.3a62.24,62.24,0,0,1-18.83-3.8,46.62,46.62,0,0,1-14.58-8.63,34.93,34.93,0,0,1-9.2-12.65A35.39,35.39,0,0,1,809.56,114,34.25,34.25,0,0,1,814,98.5a39,39,0,0,1,10.64-11.83,46.19,46.19,0,0,1,15.46-7.34A58.51,58.51,0,0,1,859,77.46l74.07,4a17.9,17.9,0,0,0,14.55-6.21l5-5.75A17.93,17.93,0,0,0,940,39.93l-78.69-4.27a127.23,127.23,0,0,0-39,3.55A92.2,92.2,0,0,0,790.8,53.64a75.94,75.94,0,0,0-21.54,23.88,70.16,70.16,0,0,0-9.07,31.67,73.13,73.13,0,0,0,5.56,32.95,79.62,79.62,0,0,0,18.77,27A95.58,95.58,0,0,0,814.21,188a115.81,115.81,0,0,0,38.34,8.34l81.06,4.41a29.24,29.24,0,0,0,30.77-27.6h0A62.2,62.2,0,0,1,951.75,113.14Z"/><path class="cls-3" d="M1099.85,191.64a20.3,20.3,0,0,0-13.52-25.29l-75.13-22.89a15.14,15.14,0,0,1-10.07-18.9l1.64-4.22L1061,138.08l19,5.8c17.09,5.21,28.74-33.5,11.72-38.69l-77.71-23.67c2.47-8,11.92-16.92,19.89-14.49l73.67,22.44a23.14,23.14,0,0,0,17.62-1.71h0c15.58-8.31,13.34-31.29-3.54-36.44l-78.38-23.87a52.11,52.11,0,0,0-65,34.66l-6.11,20.07-10.33,34.43a52.11,52.11,0,0,0,34.73,64.83h0l77.93,23.74a20.31,20.31,0,0,0,25.35-13.54Z"/><path class="cls-4" d="M217,37.15v0h0a44.72,44.72,0,0,0-52.9,34.68L154.26,119,77,14q-4.7-6.54-8.89-9a28.82,28.82,0,0,0-8.61-3.36,30.89,30.89,0,0,0-10.18-.43A22.57,22.57,0,0,0,39.92,4.6a25.86,25.86,0,0,0-7.67,7.83A36.53,36.53,0,0,0,27.3,25.18L0,156.32H0a44.49,44.49,0,0,0,52.63-34.49l10.42-50,77.26,105q4.44,6.48,8.65,8.93a29.4,29.4,0,0,0,8.84,3.41,32.08,32.08,0,0,0,10.3.45,21.85,21.85,0,0,0,9.55-3.45,27.24,27.24,0,0,0,7.69-7.95,36.53,36.53,0,0,0,4.95-12.75l18.34-88.14Z"/><path class="cls-5" d="M600.36,30.73,599,30.57c-9.16-1.13-18,4.54-21.76,13.9l-1.11,2.77L564,77.65l-2.6,6.52q-5.07,13-8.56,22.85c-.28.8-.56,1.59-.83,2.39l-5.91,15.65c-1.55-5.45-3.35-11.43-5.45-18q-3.37-10.58-9-26.79L517.24,38.38a54.17,54.17,0,0,0-3.35-8.11v-.1a23.41,23.41,0,0,0-4.35-4.63,18.57,18.57,0,0,0-6.12-3.22,45.54,45.54,0,0,0-7.29-1.48,43.71,43.71,0,0,0-7.23-.3,18.53,18.53,0,0,0-6.72,1.65,23,23,0,0,0-6.42,4.49c-.49.46-1,1-1.48,1.53a52.7,52.7,0,0,0-5.11,6.93l-23.7,36.51q-9.21,14.13-14.94,23.4c-3.55,5.75-6.69,11-9.45,15.84l-1.92-16.31c-.08-.83-.15-1.65-.23-2.48q-1-10.2-2.74-23.8l-.93-6.84-4.34-31.84-.39-2.9c-1.33-9.8-8.45-17.31-17.45-18.41l-1.31-.16c-10.2-1.25-19.22,5.9-22.13,15.81l1.3.28a29.35,29.35,0,0,1,23,23.88,29.33,29.33,0,0,1-13.26,30.34,32.86,32.86,0,0,1-5.27,2.72l1.81,15.38,8.59,72.9L408,172.18v0a22.57,22.57,0,0,0,13.91-2.83,33,33,0,0,0,5.6-4.28,39.1,39.1,0,0,0,5.44-6.46l27.9-41.16,3.12-4.61q3.79-5.61,6.8-10.13,4.18-6.28,7.48-11.4T484.05,82q2.54-4.14,4.73-8.1l2.84,9c1,3.09,2.15,6.56,3.54,10.41s2.91,8.18,4.6,13q1.59,4.55,3.58,10v0c.63,1.71,1.28,3.48,1.95,5.33l17.46,47.54a39.48,39.48,0,0,0,3.78,7.71,32.86,32.86,0,0,0,4.48,5.6,22.94,22.94,0,0,0,13.06,6.23v0l22.58,2.77L593,121.69l8.87-23.49,14.62-36C622.21,48.16,614.11,32.42,600.36,30.73Z"/><path class="cls-6" d="M358.23,175.63a20.31,20.31,0,0,0-15.49-24.14L266,134.67a15.15,15.15,0,0,1-11.55-18l1.3-4.33,59.46,13,19.45,4.27c17.46,3.83,26-35.69,8.6-39.5L263.93,72.7c1.82-8.13,10.53-17.82,18.67-16l75.22,16.49A23.15,23.15,0,0,0,375.25,70h0c14.87-9.51,10.8-32.25-6.44-36l-80-17.55a52.13,52.13,0,0,0-62.07,39.75L222.22,76.7l-7.55,35.14a52.12,52.12,0,0,0,39.79,61.86h0l79.59,17.44a20.29,20.29,0,0,0,24.18-15.51Z"/><path class="cls-7" d="M842.57,117.07l-18-15.73a27.5,27.5,0,0,0-2.14,3.24,24.2,24.2,0,0,0-3,11.11,25.14,25.14,0,0,0,2,11.43,24.46,24.46,0,0,0,3,5.07l15.43-3.9A6.51,6.51,0,0,0,842.57,117.07Z"/><path class="cls-8" d="M756.9,148a83.52,83.52,0,0,1-6.85-37.29,80.59,80.59,0,0,1,9.88-36.24,85.76,85.76,0,0,1,13.32-18l-52.33-45.7a48.28,48.28,0,0,0-15.37-9.16q-8.47-3.1-19.25-.37-11.24,2.85-17.24,10a55,55,0,0,0-9.13,15L601.27,178.15a6.52,6.52,0,0,0,7.67,8.67l40.69-10.32a6.52,6.52,0,0,0,4.48-4l45-116.91,37.8,33.61Q742.18,93.74,748,99l.12.1a6.52,6.52,0,0,1-2.76,11.18l-.34.09L730.72,114l-35.3,9a6.53,6.53,0,0,0-4.45,3.89l-12.69,31.75a6.51,6.51,0,0,0,7.65,8.73l71.52-18.12C757.27,148.78,757.07,148.4,756.9,148Z"/></g></g></svg>